<?xml version="1.0" encoding="UTF-8"?>
<svg version="1.1" xmlns="http://www.w3.org/2000/svg" width="100" height="100">
<path d="M0 0 C0.70832977 -0.01022186 1.41665955 -0.02044373 2.14645386 -0.03097534 C4.46794249 -0.05857917 6.78823092 -0.05686888 9.10986328 -0.05224609 C10.73740064 -0.06003092 12.36493398 -0.0687025 13.99246216 -0.07821655 C17.3968017 -0.09310067 20.80072628 -0.09258874 24.20507812 -0.08203125 C28.54853987 -0.07045085 32.89029331 -0.10429547 37.23347282 -0.1507206 C40.5932086 -0.18031589 43.95253869 -0.18192264 47.31238174 -0.17570114 C48.91264349 -0.17672172 50.51292972 -0.18708688 52.11306381 -0.20732498 C67.06152596 -0.37319529 67.06152596 -0.37319529 73.78713989 4.57876587 C78.48370849 9.81328958 80.0538178 13.99957988 80.10449219 20.99414062 C80.11471405 21.7024704 80.12493591 22.41080017 80.13546753 23.14059448 C80.16307136 25.46208312 80.16136107 27.78237155 80.15673828 30.10400391 C80.16452311 31.73154127 80.17319469 33.35907461 80.18270874 34.98660278 C80.19759286 38.39094232 80.19708093 41.79486691 80.18652344 45.19921875 C80.17494304 49.5426805 80.20878766 53.88443394 80.25521278 58.22761345 C80.28480808 61.58734923 80.28641483 64.94667931 80.28019333 68.30652237 C80.28121391 69.90678412 80.29157907 71.50707034 80.31181717 73.10720444 C80.47768748 88.05566658 80.47768748 88.05566658 75.52572632 94.78128052 C70.29120261 99.47784912 66.10491231 101.04795843 59.11035156 101.09863281 C58.0478569 101.11396561 58.0478569 101.11396561 56.96389771 101.12960815 C54.64240907 101.15721199 52.32212064 101.1555017 50.00048828 101.15087891 C48.37295092 101.15866374 46.74541758 101.16733531 45.1178894 101.17684937 C41.71354987 101.19173348 38.30962528 101.19122155 34.90527344 101.18066406 C30.56181169 101.16908366 26.22005825 101.20292828 21.87687874 101.24935341 C18.51714296 101.2789487 15.15781288 101.28055545 11.79796982 101.27433395 C10.19770807 101.27535453 8.59742185 101.2857197 6.99728775 101.30595779 C-7.9511744 101.4718281 -7.9511744 101.4718281 -14.67678833 96.51986694 C-19.37335693 91.28534324 -20.94346624 87.09905294 -20.99414062 80.10449219 C-21.00436249 79.39616241 -21.01458435 78.68783264 -21.02511597 77.95803833 C-21.0527198 75.63654969 -21.05100951 73.31626127 -21.04638672 70.99462891 C-21.05417155 69.36709154 -21.06284313 67.7395582 -21.07235718 66.11203003 C-21.0872413 62.70769049 -21.08672937 59.30376591 -21.07617188 55.89941406 C-21.06459148 51.55595231 -21.0984361 47.21419888 -21.14486122 42.87101936 C-21.17445651 39.51128359 -21.17606326 36.1519535 -21.16984177 32.79211044 C-21.17086234 31.19184869 -21.18122751 29.59156247 -21.20146561 27.99142838 C-21.36733591 13.04296623 -21.36733591 13.04296623 -16.41537476 6.31735229 C-11.18085105 1.6207837 -6.99456075 0.05067439 0 0 Z " fill="#FF6B7A" transform="translate(20.44482421875,-0.54931640625)"/>
<path d="M0 0 C1.7644043 -0.00386719 1.7644043 -0.00386719 3.56445312 -0.0078125 C4.77939453 -0.00007813 5.99433594 0.00765625 7.24609375 0.015625 C8.46490234 0.00789063 9.68371094 0.00015625 10.93945312 -0.0078125 C12.11443359 -0.00523438 13.28941406 -0.00265625 14.5 0 C15.56677979 0.00225586 16.63355957 0.00451172 17.73266602 0.00683594 C20.7871742 0.27470875 22.94972493 0.89763597 25.68359375 2.265625 C29.15493799 6.53804869 30.25356944 12.04248656 31.68359375 17.265625 C32.34359375 16.935625 33.00359375 16.605625 33.68359375 16.265625 C35.68319387 16.225633 37.68406617 16.22215701 39.68359375 16.265625 C39.68359375 17.255625 39.68359375 18.245625 39.68359375 19.265625 C37.37359375 19.265625 35.06359375 19.265625 32.68359375 19.265625 C32.68359375 26.195625 32.68359375 33.125625 32.68359375 40.265625 C30.70359375 40.265625 28.72359375 40.265625 26.68359375 40.265625 C26.68359375 37.625625 26.68359375 34.985625 26.68359375 32.265625 C13.48359375 32.265625 0.28359375 32.265625 -13.31640625 32.265625 C-13.31640625 34.905625 -13.31640625 37.545625 -13.31640625 40.265625 C-15.29640625 40.265625 -17.27640625 40.265625 -19.31640625 40.265625 C-19.31640625 33.335625 -19.31640625 26.405625 -19.31640625 19.265625 C-21.62640625 19.265625 -23.93640625 19.265625 -26.31640625 19.265625 C-26.31640625 18.275625 -26.31640625 17.285625 -26.31640625 16.265625 C-20.56640625 16.140625 -20.56640625 16.140625 -18.31640625 17.265625 C-18.13464844 16.60175781 -17.95289063 15.93789063 -17.765625 15.25390625 C-14.9602251 5.39903993 -14.9602251 5.39903993 -12.31640625 2.265625 C-8.10988943 0.5455866 -4.52445779 0.00955751 0 0 Z " fill="#FFFAFA" transform="translate(43.31640625,29.734375)"/>
<path d="M0 0 C1.21558594 -0.01224609 2.43117188 -0.02449219 3.68359375 -0.03710938 C16.029309 -0.05730411 16.029309 -0.05730411 20.75 2.1875 C22.30859375 4.68359375 22.30859375 4.68359375 23.1875 7.625 C23.49558594 8.59308594 23.80367187 9.56117187 24.12109375 10.55859375 C24.75 13.1875 24.75 13.1875 24.75 16.1875 C19.51434587 16.91743267 14.47730193 17.31557221 9.1796875 17.3203125 C8.49496368 17.32126923 7.81023987 17.32222595 7.10476685 17.32321167 C5.67124336 17.32388631 4.23771668 17.32208256 2.80419922 17.31787109 C0.62330224 17.31249582 -1.5573904 17.31784904 -3.73828125 17.32421875 C-5.14062545 17.32355816 -6.54296952 17.32227741 -7.9453125 17.3203125 C-9.20359863 17.31918457 -10.46188477 17.31805664 -11.75830078 17.31689453 C-15.01418876 17.19623863 -18.05504153 16.80514699 -21.25 16.1875 C-20.70147443 10.83937565 -19.05622283 5.78389946 -16.25 1.1875 C-11.02358574 -0.55463809 -5.47001478 0.00286388 0 0 Z " fill="#FF6E7D" transform="translate(48.25,31.8125)"/>
<path d="M0 0 C1.7644043 -0.00386719 1.7644043 -0.00386719 3.56445312 -0.0078125 C4.77939453 -0.00007813 5.99433594 0.00765625 7.24609375 0.015625 C8.46490234 0.00789063 9.68371094 0.00015625 10.93945312 -0.0078125 C12.11443359 -0.00523438 13.28941406 -0.00265625 14.5 0 C15.56677979 0.00225586 16.63355957 0.00451172 17.73266602 0.00683594 C20.7871742 0.27470875 22.94972493 0.89763597 25.68359375 2.265625 C29.15493799 6.53804869 30.25356944 12.04248656 31.68359375 17.265625 C30.69359375 17.760625 30.69359375 17.760625 29.68359375 18.265625 C28.03359375 13.645625 26.38359375 9.025625 24.68359375 4.265625 C20.2881493 3.53305092 16.67601273 3.13738328 12.296875 3.1328125 C10.51893555 3.13087891 10.51893555 3.13087891 8.70507812 3.12890625 C6.86913086 3.13470703 6.86913086 3.13470703 4.99609375 3.140625 C3.76052734 3.13675781 2.52496094 3.13289063 1.25195312 3.12890625 C0.07052734 3.13019531 -1.11089844 3.13148437 -2.328125 3.1328125 C-3.94400513 3.13450439 -3.94400513 3.13450439 -5.5925293 3.13623047 C-8.41169043 3.14691069 -8.41169043 3.14691069 -11.31640625 4.265625 C-12.35505721 6.63257887 -13.21217721 8.88117995 -14.00390625 11.328125 C-14.22884766 11.99134766 -14.45378906 12.65457031 -14.68554688 13.33789062 C-15.23975344 14.97692707 -15.7794671 16.62085093 -16.31640625 18.265625 C-16.97640625 17.935625 -17.63640625 17.605625 -18.31640625 17.265625 C-15.11902522 5.58724748 -15.11902522 5.58724748 -12.31640625 2.265625 C-8.10988943 0.5455866 -4.52445779 0.00955751 0 0 Z " fill="#FFE0E3" transform="translate(43.31640625,29.734375)"/>
<path d="M0 0 C2.97 0 5.94 0 9 0 C9 1.32 9 2.64 9 4 C6.03 4 3.06 4 0 4 C0 2.68 0 1.36 0 0 Z " fill="#FF7C89" transform="translate(62,53)"/>
<path d="M0 0 C2.97 0 5.94 0 9 0 C9 0.99 9 1.98 9 3 C6.03 3 3.06 3 0 3 C0 2.01 0 1.02 0 0 Z " fill="#FF6B7A" transform="translate(29,54)"/>
</svg>
